<svg width="155" height="124" viewBox="0 0 155 124" fill="none" xmlns="http://www.w3.org/2000/svg">
<rect x="32.6021" y="15.5766" width="75" height="75" rx="10" fill="#0F0F24"/>
<path d="M57.2131 49.4218L46.3756 44.2642C46.2599 44.9027 46.1324 45.5618 45.9929 46.2415C45.8712 46.9095 45.7317 47.5893 45.5744 48.2808L49.6264 54.425L47.3022 55.9577L35.3227 37.7921L37.6468 36.2594L43.8656 45.6895C44.4239 42.8936 44.7649 40.3688 44.8886 38.1151C45.0123 35.8614 44.9492 33.6925 44.6993 31.6085L47.2104 29.9525C47.4425 32.0483 47.5451 34.025 47.518 35.8828C47.497 37.711 47.3514 39.6214 47.0811 41.6141L60.0448 47.5543L57.2131 49.4218ZM54.9861 27.3638L57.8262 26.8859L60.1414 40.6445C60.4316 42.3696 61.0158 43.6558 61.894 44.5032C62.7931 45.347 64.0106 45.6397 65.5463 45.3813C67.1031 45.1193 68.1577 44.4443 68.7101 43.3562C69.2626 42.2681 69.3936 40.8615 69.1034 39.1364L66.7882 25.3778L69.6282 24.8999L71.9434 38.6585C72.3647 41.162 72.0856 43.2317 71.1062 44.8675C70.1232 46.4824 68.4115 47.4951 65.9711 47.9058C63.5097 48.3199 61.5504 47.9249 60.093 46.7208C58.6531 45.492 57.7226 43.6259 57.3013 41.1224L54.9861 27.3638ZM76.3051 46.3649L78.9297 24.7637L85.6642 25.582C87.7396 25.8341 89.2504 26.5765 90.1967 27.8089C91.1667 29.0228 91.541 30.5404 91.3197 32.3616L91.1152 34.0452C90.8939 35.8665 90.1657 37.2609 88.9307 38.2283C87.7168 39.1983 86.0722 39.5572 83.9968 39.3051L80.026 38.8226L79.0688 46.7006L76.3051 46.3649ZM85.3477 28.1868L81.3769 27.7044L80.3386 36.2495L84.3094 36.732C85.453 36.8709 86.3586 36.6693 87.0262 36.1272C87.715 35.5877 88.125 34.7779 88.2562 33.6979L88.4608 32.0143C88.5894 30.9554 88.3827 30.0921 87.8406 29.4245C87.3222 28.7383 86.4913 28.3258 85.3477 28.1868Z" fill="#EAE9FC"/>
<g filter="url(#filter1_d_27_2)">
<path d="M47.3221 57.4166L48.1221 44.3766H61.6421V47.5766H51.2021L50.7221 55.3766C51.8954 54.9766 53.1621 54.7766 54.5221 54.7766C57.0287 54.7766 59.0287 55.4433 60.5221 56.7766C62.0154 58.1099 62.7621 60.0833 62.7621 62.6966V63.8966C62.7621 66.2699 62.0687 68.2166 60.6821 69.7366C59.2954 71.2299 57.0687 71.9766 54.0021 71.9766C52.8021 71.9766 51.5487 71.8433 50.2421 71.5766C48.9621 71.2833 47.6287 70.8299 46.2421 70.2166L47.3221 67.3366C48.6287 67.8966 49.8154 68.2966 50.8821 68.5366C51.9487 68.7499 52.9754 68.8566 53.9621 68.8566C55.6154 68.8566 56.9087 68.4833 57.8421 67.7366C58.7754 66.9633 59.2421 65.6833 59.2421 63.8966V62.6966C59.2421 61.2299 58.8154 60.0566 57.9621 59.1766C57.1354 58.2966 55.8687 57.8566 54.1621 57.8566C53.3621 57.8566 52.5754 57.9633 51.8021 58.1766C51.0287 58.3633 50.2154 58.6433 49.3621 59.0166L47.3221 57.4166ZM86.3555 54.9766V60.9366C86.3555 64.5633 85.5422 67.3099 83.9155 69.1766C82.2889 71.0433 80.0222 71.9766 77.1155 71.9766C74.2089 71.9766 71.9422 71.0433 70.3155 69.1766C68.7155 67.3099 67.9155 64.5633 67.9155 60.9366V54.9766C67.9155 51.3766 68.7289 48.6433 70.3555 46.7766C71.9822 44.9099 74.2355 43.9766 77.1155 43.9766C80.0222 43.9766 82.2889 44.9099 83.9155 46.7766C85.5422 48.6433 86.3555 51.3766 86.3555 54.9766ZM82.8355 54.9766C82.8355 52.2033 82.3289 50.2033 81.3155 48.9766C80.3289 47.7499 78.9289 47.1366 77.1155 47.1366C75.3289 47.1366 73.9289 47.7499 72.9155 48.9766C71.9289 50.2033 71.4355 52.2033 71.4355 54.9766V60.9366C71.4355 63.6833 71.9289 65.6966 72.9155 66.9766C73.9289 68.2299 75.3289 68.8566 77.1155 68.8566C78.9289 68.8566 80.3289 68.2299 81.3155 66.9766C82.3289 65.6966 82.8355 63.6833 82.8355 60.9366V54.9766Z" fill="#8821E8"/>
</g>
<path d="M99.4741 39.0566H103.506L87.7141 81.4406H83.7301L99.4741 39.0566Z" fill="#8821E8"/>
<mask id="path-5-inside-1_27_2" fill="white">
<path d="M96.6021 63.5766C101.02 63.5766 104.602 67.1583 104.602 71.5766C104.602 75.9949 101.02 79.5766 96.6021 79.5766C92.1838 79.5766 88.6021 75.9949 88.6021 71.5766C88.6021 67.1583 92.1838 63.5766 96.6021 63.5766Z"/>
</mask>
<path d="M96.6021 63.5766V65.5766C99.9158 65.5766 102.602 68.2629 102.602 71.5766H104.602H106.602C106.602 66.0538 102.125 61.5766 96.6021 61.5766V63.5766ZM104.602 71.5766H102.602C102.602 74.8903 99.9158 77.5766 96.6021 77.5766V79.5766V81.5766C102.125 81.5766 106.602 77.0995 106.602 71.5766H104.602ZM96.6021 79.5766V77.5766C93.2884 77.5766 90.6021 74.8903 90.6021 71.5766H88.6021H86.6021C86.6021 77.0995 91.0792 81.5766 96.6021 81.5766V79.5766ZM88.6021 71.5766H90.6021C90.6021 68.2629 93.2884 65.5766 96.6021 65.5766V63.5766V61.5766C91.0792 61.5766 86.6021 66.0538 86.6021 71.5766H88.6021Z" fill="#EAE9FC" mask="url(#path-5-inside-1_27_2)"/>
<defs>
<filter id="filter1_d_27_2" x="42.2421" y="43.9766" width="48.1134" height="36" filterUnits="userSpaceOnUse" color-interpolation-filters="sRGB">
<feFlood flood-opacity="0" result="BackgroundImageFix"/>
<feColorMatrix in="SourceAlpha" type="matrix" values="0 0 0 0 0 0 0 0 0 0 0 0 0 0 0 0 0 0 127 0" result="hardAlpha"/>
<feOffset dy="4"/>
<feGaussianBlur stdDeviation="2"/>
<feComposite in2="hardAlpha" operator="out"/>
<feColorMatrix type="matrix" values="0 0 0 0 0 0 0 0 0 0 0 0 0 0 0 0 0 0 0.25 0"/>
<feBlend mode="normal" in2="BackgroundImageFix" result="effect1_dropShadow_27_2"/>
<feBlend mode="normal" in="SourceGraphic" in2="effect1_dropShadow_27_2" result="shape"/>
</filter>
</defs>
</svg>
