<svg width="110" height="110" viewBox="16 2 84 84" fill="none" xmlns="http://www.w3.org/2000/svg"><rect x="21.414" y="5.713" width="75" height="75" rx="10" fill="#8821e8"/><path d="m47.268 38.407-10.572-5.682a87 87 0 0 1-.48 1.956 48 48 0 0 1-.517 2.016l3.746 6.336-2.396 1.417-11.076-18.73 2.396-1.418 5.75 9.724q1.041-4.148 1.393-7.516.35-3.367.13-6.508l2.588-1.53q.195 3.156.017 5.937a47 47 0 0 1-.717 5.703l12.657 6.568zM45.72 16.184l2.844-.453 2.192 13.779q.412 2.591 1.718 3.874 1.337 1.279 3.644.91 2.34-.371 3.182-1.996t.431-4.216l-2.192-13.779 2.844-.452 2.192 13.779q.598 3.76-.893 6.201-1.496 2.409-5.162 2.992-3.697.588-5.867-1.237-2.144-1.863-2.741-5.624zm21.463 19.132 2.243-21.644 6.748.7q3.12.322 4.57 2.146 1.488 1.794 1.204 4.532l-.175 1.687q-.283 2.738-2.11 4.221-1.795 1.487-4.914 1.164l-3.979-.413-.818 7.894zm8.72-18.335-3.979-.412-.887 8.562 3.979.413q1.719.177 2.706-.653 1.018-.828 1.187-2.45l.174-1.688q.165-1.59-.665-2.578-.795-1.016-2.515-1.194" fill="#eae9fc"/><g filter="url(#a)"><path d="m36.134 47.553.8-13.04h13.52v3.2h-10.44l-.48 7.8q1.76-.6 3.8-.6 3.76 0 6 2t2.24 5.92v1.2q0 3.56-2.08 5.84-2.08 2.24-6.68 2.24-1.8 0-3.76-.4-1.92-.44-4-1.36l1.08-2.88q1.96.84 3.56 1.2 1.6.32 3.08.32 2.48 0 3.88-1.12 1.4-1.16 1.4-3.84v-1.2q0-2.2-1.28-3.52-1.24-1.32-3.8-1.32-1.2 0-2.36.32-1.16.28-2.44.84zm39.034-2.44v5.96q0 5.44-2.44 8.24t-6.8 2.8-6.8-2.8q-2.4-2.8-2.4-8.24v-5.96q0-5.4 2.44-8.2t6.76-2.8q4.36 0 6.8 2.8t2.44 8.2m-3.52 0q0-4.16-1.52-6-1.48-1.84-4.2-1.84-2.68 0-4.2 1.84-1.48 1.84-1.48 6v5.96q0 4.12 1.48 6.04 1.52 1.88 4.2 1.88 2.72 0 4.2-1.88 1.52-1.92 1.52-6.04z" fill="#0f0f24"/></g><path d="M88.286 29.193h4.032L76.526 71.577h-3.984z" fill="#0f0f24"/><mask id="b" fill="#fff"><path d="M85.414 53.713a8 8 0 1 1 0 16 8 8 0 0 1 0-16"/></mask><path d="M85.414 53.713v2a6 6 0 0 1 6 6h4c0-5.523-4.477-10-10-10zm8 8h-2a6 6 0 0 1-6 6v4c5.523 0 10-4.477 10-10zm-8 8v-2a6 6 0 0 1-6-6h-4c0 5.523 4.477 10 10 10zm-8-8h2a6 6 0 0 1 6-6v-4c-5.523 0-10 4.477-10 10z" fill="#eae9fc" mask="url(#b)"/><defs><filter id="a" x="31.054" y="34.113" width="48.113" height="36" filterUnits="userSpaceOnUse" color-interpolation-filters="sRGB"><feFlood flood-opacity="0" result="BackgroundImageFix"/><feColorMatrix in="SourceAlpha" values="0 0 0 0 0 0 0 0 0 0 0 0 0 0 0 0 0 0 127 0" result="hardAlpha"/><feOffset dy="4"/><feGaussianBlur stdDeviation="2"/><feComposite in2="hardAlpha" operator="out"/><feColorMatrix values="0 0 0 0 0 0 0 0 0 0 0 0 0 0 0 0 0 0 0.25 0"/><feBlend in2="BackgroundImageFix" result="effect1_dropShadow_30_49"/><feBlend in="SourceGraphic" in2="effect1_dropShadow_30_49" result="shape"/></filter></defs></svg>