<svg width="82" height="80" viewBox="18 4 82 80" fill="none" xmlns="http://www.w3.org/2000/svg">
<rect x="21.414" y="5.71291" width="75" height="75" rx="10" fill="#8821E8"/>
<path d="M47.2677 38.4069L36.6957 32.7248C36.5489 33.3569 36.3892 34.0089 36.2166 34.681C36.0624 35.3422 35.8898 36.0143 35.6988 36.6973L39.445 43.0326L37.0486 44.4496L25.973 25.7192L28.3694 24.3022L34.1189 34.0255C34.8135 31.2603 35.2777 28.7552 35.5116 26.5102C35.7456 24.2653 35.7887 22.096 35.6412 20.0022L38.2304 18.4712C38.3596 20.5758 38.3652 22.5552 38.2472 24.4094C38.1367 26.2344 37.8977 28.1354 37.5301 30.1124L50.1874 36.6804L47.2677 38.4069ZM45.7199 16.1835L48.5641 15.7311L50.7558 29.5099C51.0306 31.2375 51.6033 32.5289 52.4738 33.3841C53.3653 34.236 54.5801 34.5396 56.1181 34.2949C57.6772 34.047 58.7378 33.3814 59.2999 32.2983C59.8621 31.2152 60.0058 29.8099 59.731 28.0823L57.5393 14.3035L60.3835 13.8511L62.5752 27.6298C62.974 30.137 62.6764 32.2041 61.6823 33.8311C60.6849 35.4371 58.9642 36.4344 56.5202 36.8232C54.0552 37.2153 52.0995 36.8027 50.653 35.5855C49.2242 34.3438 48.3104 32.4694 47.9116 29.9623L45.7199 16.1835ZM67.183 35.3163L69.4257 13.6721L76.1736 14.3713C78.2531 14.5868 79.7768 15.3023 80.7447 16.5179C81.736 17.7144 82.1371 19.2252 81.948 21.0501L81.7732 22.737C81.5841 24.5619 80.8807 25.9689 79.6629 26.958C78.4664 27.9493 76.8284 28.3372 74.7488 28.1217L70.7701 27.7095L69.9522 35.6032L67.183 35.3163ZM75.9032 16.9814L71.9245 16.5691L71.0373 25.1313L75.016 25.5435C76.1618 25.6623 77.0637 25.4447 77.7216 24.8909C78.4008 24.3393 78.7964 23.5224 78.9086 22.4402L79.0834 20.7532C79.1933 19.6922 78.9714 18.8328 78.4175 18.1749C77.8872 17.4979 77.049 17.1001 75.9032 16.9814Z" fill="#EAE9FC"/>
<g filter="url(#filter1_d_30_49)">
<path d="M36.134 47.5529L36.934 34.5129H50.454V37.7129H40.014L39.534 45.5129C40.7074 45.1129 41.974 44.9129 43.334 44.9129C45.8407 44.9129 47.8407 45.5796 49.334 46.9129C50.8274 48.2462 51.574 50.2196 51.574 52.8329V54.0329C51.574 56.4062 50.8807 58.3529 49.494 59.8729C48.1074 61.3662 45.8807 62.1129 42.814 62.1129C41.614 62.1129 40.3607 61.9796 39.054 61.7129C37.774 61.4196 36.4407 60.9662 35.054 60.3529L36.134 57.4729C37.4407 58.0329 38.6274 58.4329 39.694 58.6729C40.7607 58.8862 41.7874 58.9929 42.774 58.9929C44.4274 58.9929 45.7207 58.6196 46.654 57.8729C47.5874 57.0996 48.054 55.8196 48.054 54.0329V52.8329C48.054 51.3662 47.6274 50.1929 46.774 49.3129C45.9474 48.4329 44.6807 47.9929 42.974 47.9929C42.174 47.9929 41.3874 48.0996 40.614 48.3129C39.8407 48.4996 39.0274 48.7796 38.174 49.1529L36.134 47.5529ZM75.1675 45.1129V51.0729C75.1675 54.6996 74.3541 57.4462 72.7275 59.3129C71.1008 61.1796 68.8341 62.1129 65.9275 62.1129C63.0208 62.1129 60.7541 61.1796 59.1275 59.3129C57.5275 57.4462 56.7275 54.6996 56.7275 51.0729V45.1129C56.7275 41.5129 57.5408 38.7796 59.1675 36.9129C60.7941 35.0462 63.0475 34.1129 65.9275 34.1129C68.8341 34.1129 71.1008 35.0462 72.7275 36.9129C74.3541 38.7796 75.1675 41.5129 75.1675 45.1129ZM71.6475 45.1129C71.6475 42.3396 71.1408 40.3396 70.1275 39.1129C69.1408 37.8862 67.7408 37.2729 65.9275 37.2729C64.1408 37.2729 62.7408 37.8862 61.7275 39.1129C60.7408 40.3396 60.2475 42.3396 60.2475 45.1129V51.0729C60.2475 53.8196 60.7408 55.8329 61.7275 57.1129C62.7408 58.3662 64.1408 58.9929 65.9275 58.9929C67.7408 58.9929 69.1408 58.3662 70.1275 57.1129C71.1408 55.8329 71.6475 53.8196 71.6475 51.0729V45.1129Z" fill="#0F0F24"/>
</g>
<path d="M88.286 29.1929H92.318L76.526 71.5769H72.542L88.286 29.1929Z" fill="#0F0F24"/>
<mask id="path-5-inside-1_30_49" fill="white">
<path d="M85.414 53.7129C89.8323 53.7129 93.414 57.2946 93.414 61.7129C93.414 66.1312 89.8323 69.7129 85.414 69.7129C80.9957 69.7129 77.414 66.1312 77.414 61.7129C77.414 57.2946 80.9957 53.7129 85.414 53.7129Z"/>
</mask>
<path d="M85.414 53.7129V55.7129C88.7277 55.7129 91.414 58.3992 91.414 61.7129H93.414H95.414C95.414 56.1901 90.9368 51.7129 85.414 51.7129V53.7129ZM93.414 61.7129H91.414C91.414 65.0266 88.7277 67.7129 85.414 67.7129V69.7129V71.7129C90.9368 71.7129 95.414 67.2358 95.414 61.7129H93.414ZM85.414 69.7129V67.7129C82.1003 67.7129 79.414 65.0266 79.414 61.7129H77.414H75.414C75.414 67.2358 79.8912 71.7129 85.414 71.7129V69.7129ZM77.414 61.7129H79.414C79.414 58.3992 82.1003 55.7129 85.414 55.7129V53.7129V51.7129C79.8912 51.7129 75.414 56.1901 75.414 61.7129H77.414Z" fill="#EAE9FC" mask="url(#path-5-inside-1_30_49)"/>
<defs>
<filter id="filter1_d_30_49" x="31.054" y="34.1129" width="48.1134" height="36" filterUnits="userSpaceOnUse" color-interpolation-filters="sRGB">
<feFlood flood-opacity="0" result="BackgroundImageFix"/>
<feColorMatrix in="SourceAlpha" type="matrix" values="0 0 0 0 0 0 0 0 0 0 0 0 0 0 0 0 0 0 127 0" result="hardAlpha"/>
<feOffset dy="4"/>
<feGaussianBlur stdDeviation="2"/>
<feComposite in2="hardAlpha" operator="out"/>
<feColorMatrix type="matrix" values="0 0 0 0 0 0 0 0 0 0 0 0 0 0 0 0 0 0 0.25 0"/>
<feBlend mode="normal" in2="BackgroundImageFix" result="effect1_dropShadow_30_49"/>
<feBlend mode="normal" in="SourceGraphic" in2="effect1_dropShadow_30_49" result="shape"/>
</filter>
</defs>
</svg>
